/* XPM */
static char *MIDITRKdecor_xpm[] = {
"32 32 33 1",
"A	c #070D17",
"B	c #A5ADC1",
"C	c #5D6B87",
"D	c #DEE7F6",
"E	c #323E56",
"F	c #7E8DA9",
"G	c #415175",
"H	c #D1D4DD",
"I	c #263045",
"J	c #F5F8FD",
"K	c #9098B2",
"L	c #3B4B68",
"M	c #4B597C",
"N	c #A8B7DB",
"O	c #6E7C9E",
"P	c #1D246D",
"Q	c #939FCD",
"R	c #5661C2",
"S	c #C8D5F1",
"T	c #B9BCC4",
"U	c #697690",
"V	c #3E488C",
"W	c #334363",
"X	c #505766",
"Y	c #B8C0DE",
"Z	c #E8F4FB",
"a	c #181E29",
"b	c #9DA1B1",
"c	c #556180",
"d	c #8692D9",
"e	c #FDFEFE",
"f	c #717CB0",
" 	c None",
"                                ",
"                                ",
"           EEEC                 ",
"         XIUbFFC                ",
"        EIEOLEICK         V     ",
"       XXKcLLLLWWF        V     ",
"       UEOLGLLLWWXb       V     ",
"      EXOLLLGGWWWIX       V     ",
"     UXEKGLLLGGWWEIb      V     ",
"     EBFcLGGGCWWWEEb      V     ",
"     XBKLMcMMWMWWWWU      M     ",
"     KKOGBDSFGWWWWWXB     M     ",
"   IUBOUCZSSZLMWWEELb     c     ",
"  IAAYUUNLELXFLWWEWCK     V     ",
"  aAAYUUSELFUNMWWWEUb    PP     ",
" XaAABFFSLLSZNOGCCWKN   RRP     ",
" EaAAKFFSGLQYNOGMVGOB   WP      ",
" XaAAFFOYWWLWNOGWWWCF           ",
"  aAAOOUNWWWWNUGGWWGU           ",
"   AAMcCUFWEcNGcGWWLX           ",
"   aAWcCMYQFNFCCMGLWX           ",
"    baMGMONSNKNfCGGEU           ",
"     ILGMCUUFDSffCME            ",
"      IEGcOYDZDNQOcX            ",
"      EEEMCNSZDSNFGF            ",
"       EEGMfQSZDDUM             ",
"       aLWMUQSDZDFc             ",
"        IIICONSUMX              ",
"         EIWMOOUc               ",
"          XIIIIL                ",
"            CXc                 ",
"                                "
};
