/* XPM */
static char *MIDITRKmouse_xpm[] = {
"32 32 3 1 0 0",
"0	c #000000",
"1	c #FFFFFF",
" 	c None",
"00                              ",
"010                             ",
"01100                           ",
"011100                          ",
"0111100                         ",
"01110100                        ",
"010111100                       ",
"0111111100                      ",
"01111111100                     ",
"01111111100                     ",
"01111111100                     ",
"01111111000                     ",
"0011111000                      ",
" 00000100                       ",
"  000010                        ",
"      010                       ",
"      010                       ",
"       01                       ",
"         1                      ",
"                                ",
"                                ",
"                                ",
"                                ",
"                                ",
"                                ",
"                                ",
"                                ",
"                                ",
"                                ",
"                                ",
"                                ",
"                                "
};
