/* XPM */
static char *MIDITRKbuttons_xpm[] = {
"32 32 8 1",
"0	c #000000",
"1	c #FFFFFF",
"2	c #DBDBDB",
"3	c #B6B6B6",
"4	c #494949",
"5	c #6D6D6D",
"6	c #929292",
" 	c None",
"                                ",
"    000000000000   000000000000 ",
"    012222323330   012223233330 ",
"    023444444430   025533335530 ",
"    023555555560   025453354560 ",
"    023532223530   023545545330 ",
"    033522233560   023354453360 ",
"    024444433530   023354453330 ",
"    035223563560   033545545360 ",
"    035333563560   025453354560 ",
"    035555545560   035533335560 ",
"    033666666660   033336666660 ",
"    000000000000   000000000000 ",
"                                ",
"                                ",
"                                ",
"                                ",
"                                ",
"    000000000000000000000000000 ",
"    012223333333333333333333330 ",
"    022432242222222242222222220 ",
"    023432242224422242244442220 ",
"    023432242242242242242224220 ",
"    023444442242422242242224220 ",
"    023432242244222242242224220 ",
"    023432242242222242242242220 ",
"    023432242224422242244422220 ",
"    023333333333333333343333330 ",
"    023333333333333333343333330 ",
"    000000000000000000000000000 ",
"                                ",
"                                "
};
