/* XPM */
static char *MIDITRKicon_xpm[] = {
"32 32 33 1",
"A	c #000001",
"B	c #785454",
"C	c #000047",
"D	c #BBB6BC",
"E	c #414041",
"F	c #0000AF",
"G	c #252427",
"H	c #FDFDFD",
"I	c #7F7D80",
"J	c #0039B6",
"K	c #9E9DB7",
"L	c #454465",
"M	c #000083",
"N	c #000029",
"O	c #E0DEDF",
"P	c #0069B6",
"Q	c #A47F7F",
"R	c #6C4949",
"S	c #462424",
"T	c #DB9292",
"U	c #00005F",
"V	c #6C6465",
"W	c #0F0809",
"X	c #8B6666",
"Y	c #5F3A3A",
"Z	c #CCC9CC",
"a	c #281515",
"b	c #222255",
"c	c #7D7DA1",
"d	c #008CB6",
"e	c #A09A9C",
"f	c #4A4A85",
" 	c None",
"                                ",
"   TQQQXXXXXXXXXXBBRRRRRRRRRY   ",
"  TQQQXQXBXBBBRRRRRRRRRYYYSYYS  ",
" TQQXXXXBBRRRRRRRRRReOQYYYYSSSS ",
" TQXXXXBBRRRRRRRYRRYHHOSSSSSSaa ",
" XXXXBRRYRRRYRYRRRYYYZOQSSaSaaW ",
" QXXBRRRRRRRRReZHHQRSXZOYaaaWaW ",
" XBBRRRRRRYYQHHeZHHOXaBZOaWWWWW ",
" BRRRRYYRRSYDHHSaSXOHXaOOOaAAAW ",
" RRRYYYSRTHSSHHHSaaRHOWIHeGAAAA ",
" YRYYYHSXDHDSaOHTWWGZeEWeGWAAAN ",
" YYYYXHHSOODaERDHWWGOIaAAWAAANN ",
" SSSeZHHSSOOHWEVHHEHeEAAGAAAAAN ",
" SHHHHHZHaGHHIGSDHHeWAWEEGAAANN ",
" SZHHHHWHQWAHOAGEHeAAWAIIaAANNC ",
" SSHHWeRZZAAHOeWWAAAGVADEWANCNC ",
" SSQHQWWZHHAWeeWAAAGIZeHEaNNCCU ",
" SSGHOVaWDHHAWWWGGGAAHOOeWNCCUU ",
" SaaQHDWAIHeAAWGLDeLEAHHHZKcLMM ",
" aaWIHOVAAAAAWGIHZZZISIOcKDZZMM ",
" aaaAIHDAAAAAGIHHaEDeGWZcMUMMFF ",
" aaAAEHeAAAAVHAVODVZIGWKZcUMMMF ",
" aAAAAAAAAEeHeGAIOHHHZeCDfUMMFJ ",
" WAAAAAAIOHOONANWLOKCCCCUMMMFJJ ",
" WAAAAAAZILDODANNNfHcCUUMMMFJJP ",
" AAAAAAAEAANHHVbCCCcCCUMFMFFJJd ",
" AAAAAAAWNWALHOfCUCCUUMFMJFJJJd ",
" AAAAAAANNNNbKZKbCCCMMMFFFJJJPd ",
" AAAWAWNNNNCCUcfCUMUFMFFJJJJPPd ",
"  WNNNNNCNCCUUUMMMMMFFFJJJJJJd  ",
"   NNNNCCUUMMMMFMUFFFFJJJJJPP   ",
"                                "
};
