/* XPM */
static char *PETSCIIset_xpm[] = {
"2048 8 2 1",
"0	c #000000",
"1	c #9890DF",
"00111100000000000000000000000000000000000000000000000000000000000000000000000000000000000000000000000000000000000000000000000000000000000000000000000000000000000000000000000000000000000000000000000000000000000000000000111100000011000011110000000000000000000000000000011000011001100110011000011000011000100011110000000110000011000011000000000000000000000000000000000000000000000000000000111100000110000011110000111100000001100111111000111100011111100011110000111100000000000000000000001110000000000111000000111100000000000001100001111100001111000111100001111110011111100011110001100110001111000001111001100110011000000110001101100110001111000111110000111100011111000011110001111110011001100110011001100011011001100110011001111110000110001100000000011000001100110011001100000000111100000000000011111111000000001100000011001100000000110000000011001100000000110001100000000000000110000000000000000000000000000001100000000000000110001100000011100000000001111111111111111111000000000000000100000000000011110001100011110000111100001100001111111111111111111111111111111111111111111111111111111111111111111111111111111111111111111111111111111111111111111111111111111111111111111111111111111111111111111111111111111111111111111111111111111111111111111100001111110011110000111111111111111111111111111110011110011001100110011110011110011101110000111111100111110011110011111111111111111111111111111111111111111111111111111100001111100111110000111100001111111001100000011100001110000001110000111100001111111111111111111111000111111111100011111100001111111111111001111000001111000011100001111000000110000001110000111001100111000011111000011001100110011111100111001001100111000011100000111100001110000011110000111000000110011001100110011001110010011001100110011000000111100111001111111110011111001100110011001111111100001111111111110000000011111111001111110011001111111100111111110011001111111100111001111111111111100111111111111111111111111111111001111111111111100111001111110001111111111000000000000000000011111111111111101111111111110000111001110000111100001111",
"01100110000000000110000000000000000001100000000000001110000000000110000000011000000001100110000000111000000000000000000000000000000000000000000000000000000000000001100000000000000000000000000000000000000000000000000000110000000100100000110000011000000100000000000000011000011001100110011000111110011001100110011000001100000110000001100001100110000110000000000000000000000000000000001101100110000110000110011001100110000011100110000001100110011001100110011001100110000000000000000000011000000000000001100001100110000000000011110001100110011001100110110001100000011000000110011001100110000110000000110001101100011000000111011101110110011001100110011001100110011001100110011000011000011001100110011001100011011001100110011000000110000110001100000000011000001100111001100100000000111100000000000000000000000000001100000011001100000000110000000010011001000000110001100000000000000110000000000000000000000000000001100000000000000110001100000011100000000001111111111111111111000000000000001100000000000011110001100011110000111100001001100111111111100111111111111111111001111111111111000111111111100111111110011111111001100111111100011111111111111111111111111111111111111111111111111111111111111001111111111111111111111111111111111111111111111111111100111111101101111100111110011111101111111111111110011110011001100110011100000110011001100110011111001111100111111001111001100111100111111111111111111111111111111111001001100111100111100110011001100111110001100111111001100110011001100110011001100111111111111111111110011111111111111001111001100111111111110000111001100110011001100100111001111110011111100110011001100111100111111100111001001110011111100010001000100110011001100110011001100110011001100110011110011110011001100110011001110010011001100110011111100111100111001111111110011111001100011001101111111100001111111111111111111111111111001111110011001111111100111111110110011011111100111001111111111111100111111111111111111111111111111001111111111111100111001111110001111111111000000000000000000011111111111111001111111111110000111001110000111100001111",
"01101110001111000110000000111100000001100011110000011000001111100110000000000000000000000110000000011000011001100111110000111100011111000011111001111100001111100111111001100110011001100110001101100110011001100111111000110000001100000000110000111100001100000000000000011000011001101111111101100000000011000011110000011000001100000000110000111100000110000000000000000000000000000000011001101110001110000000011000000110000111100111110001100000000011000110011001100110000110000001100000110000011111100000110000000110000000000110011001100110011000000110011001100000011000000110000001100110000110000000110001111000011000000111111101111110011001100110011001100110011001100110000000011000011001100110011001100011001111000110011000001100000110000011000000011000110011001100110000000000111100000000000000000000000000001100000000110011000000110000000000110011000000110001100000000000000110000000000000000000000000000001100000000000000110001100000011100000000001110000000011111111000000000000011000000000000011110001100011110000111100001001000111000011100111111100001111111001110000111110011111000001100111111111111111111111100111111110011110011001100000111100001110000011110000011000001111000001100000011001100110011001100111001001100110011001100000011100111111001111111100111100001111001111111111111110011110011001000000001001111111110011110000111110011111001111111100111100001111100111111111111111111111111111111110011001000111000111111110011111100111100001100000111001111111110011100110011001100111100111111001111100111110000001111100111111100111111111100110011001100110011111100110011001111110011111100111111001100111100111111100111000011110011111100000001000000110011001100110011001100110011001100111111110011110011001100110011001110011000011100110011111001111100111110011111110011100110011001100111111111100001111111111111111111111111111001111111100110011111100111111111100110011111100111001111111111111100111111111111111111111111111111001111111111111100111001111110001111111111000111111110000000011111111111110011111111111110000111001110000111100001111",
"01101110000001100111110001100000001111100110011000111110011001100111110000111000000001100110110000011000011111110110011001100110011001100110011001100110011000000001100001100110011001100110101100111100011001100000110000110000011111000000110001111110011111110000000000011000000000000110011000111100000110000011100000000000001100000000110011111111011111100000000001111110000000000000110001110110000110000000110000011100011001100000011001111100000110000011110000111110000000000000000001100000000000000000011000001100111111110111111001111100011000000110011001111000011110000110111001111110000110000000110001110000011000000110101101111110011001100111110001100110011111000011110000011000011001100110011001101011000110000011110000011000111111110011000000011000110011000110011000000000111100000000000000000000000000001100000000110011000000110000000001100110000000110001111100000000000111111111100000000000000111111111111111111111111110001100000011100000000001110000000000000000000000000110110000000000000011111111100011110000111100001001000111111001100000111001111111000001100110011100000110011001100000111100011111111001100100111110011110000000100110011001100110011001100110011001100110011111111001111001100110011001100101001100001110011001111100111100111110000011111100111000000110000000111111111110011111111111100110011100001111100111110001111111111111001111111100110000000010000001111111111000000111111111111100111000100111100111111100111110001110011001111110011000001111100111110000111100000111111111111111111001111111111111111110011111001100000000100000011000001110011111100110011000011110000111100100011000000111100111111100111000111110011111100101001000000110011001100000111001100110000011110000111110011110011001100110011001010011100111110000111110011100000000110011111110011100110011100110011111111100001111111111111111111111111111001111111100110011111100111111111001100111111100111000001111111111100000000001111111111111100000000000000000000000000111001111110001111111111000111111111111111111111111100100111111111111110000000001110000111100001111",
"01100000001111100110011001100000011001100111111000011000011001100110011000011000000001100111100000011000011111110110011001100110011001100110011001100000001111000001100001100110011001100111111100011000011001100001100000110000001100000000110000011000011111110000000000000000000000001111111100000110001100000110011100000000001100000000110000111100000110000000000000000000000000000001100001100110000110000011000000000110011111110000011001100110000110000110011000000110000000000000000000110000011111100000110000011000111111110110011001100110011000000110011001100000011000000110011001100110000110000000110001111000011000000110001101101110011001100110000001100110011110000000011000011000011001100110011001111111001111000001100000110000111111111100000000011000001100110011001100000000111100001111111100000000000000001100000011001100000000111100110011001100000000110001111100001111000111111111100000000000000111111111111111111111111110001100000011100000000001110000000000000000000000000111100011110000000000001111100000000000000011111001111111000001100110011001111110011001100000011110011110011001100110011110011111111001100001111110011110000000100110011001100110011001100110011001111111000011111001111001100110011001100000001110011110011001111001111100111111001111111100111110011110000000111111111111111111111111000000001111100111001111100110001111111111001111111100111100001111100111111111111111111111111111111001111001100111100111110011111111100110000000111110011001100111100111100110011111100111111111111111111100111110000001111100111110011100000000100110011001100110011111100110011001111110011111100110011001100111100111111100111000011110011111100111001001000110011001100111111001100110000111111110011110011110011001100110011000000011000011111001111100111100000000001111111110011111001100110011001111111100001111000000001111111111111111001111110011001111111100001100110011001111111100111000001111000011100000000001111111111111100000000000000000000000000111001111110001111111111000111111111111111111111111100001110000111111111111000001111111111111110000",
"01100010011001100110011001100000011001100110000000011000001111100110011000011000000001100110110000011000011010110110011001100110011111000011111001100000000001100001100001100110001111000011111000111100001111100011000000110000011000100000110000011000001100000000000000000000000000000110011001111100011001100110011000000000000110000001100001100110000110000001100000000000000110000011000001100110000110000110000001100110000001100110011001100110000110000110011001100110000110000001100000011000000000000001100000000000000000000110011001100110011001100110110001100000011000000110011001100110000110000110110001101100011000000110001101100110011001100110000000111100011011000110011000011000011001100011110001110111011001100001100001100000000110001100000000011000001100111001100100000000111100001111111100000000000000001100000011001100000000111100110010011001000000110001100000001111000000000001100000000000000110000000000000011000000110001100000011100000000001110000000000000000111111110111000011110000000000000000000000000000000011111001100110011001100110011001111110011001100111111110011111000001100110011110011111111001100100111110011110010100100110011001100110000011110000011001111111111001111001111001100111000011110000011100001111000001110011111100111110011101111100111110011111001111111111111111111111111111100110011000001110011001100110011111111111100111111001111001100111100111111001111111111111100111110011111001100111100111100111111001100111111001100110011001100111100111100110011001100111100111111001111110011111111111111001111111111111111111100110011001100110011001100100111001111110011111100110011001100111100111100100111001001110011111100111001001100110011001100111111100001110010011100110011110011110011001110000111000100010011001111001111001111111100111001111111110011111001100011001101111111100001111000000001111111111111111001111110011001111111100001100110110011011111100111001111111000011111111111001111111111111100111111111111110011111100111001111110001111111111000111111111111111100000000100011110000111111111111111111111111111111110000",
"00111100001111100111110000111100001111100011110000011000000001100110011000111100000001100110011000111100011000110110011000111100011000000000011001100000011111000000111000111110000110000011011001100110000011000111111000111100111111000011110000011000000100000000000000011000000000000110011000011000010001100011111100000000000011000011000000000000000000000001100000000000000110000110000000111100011111100111111000111100000001100011110000111100000110000011110000111100000000000001100000001110000000000111000000011000000000000110011001111100001111000111100001111110011000000011110001100110001111000011100001100110011111100110001101100110001111000110000000001110011001100011110000011000001111000001100001100011011001100001100001111110000110000011000000011000110011001100110000000000111100001111111100000000000000001100000000110011000000110011001100110011000000110001100000001111000000000001100011111111000110000000000000011000000110001100000011100000000001110000000000000000111111110110000011110000000000000000000000000000000011111100001111000001100000111100001111000001110000111110011111111001100110011100001111111001100110011100001110011100100110011100001110011111111110011001111110000011111100011100000111100111110010011001100111110011100000011100001100000011110000111110011111101111111111111110011111111111100110011110011110111001110000001111111111110011110011111111111111111111111001111111111111100111100111111100001110000001100000011100001111111001110000111100001111100111110000111100001111111111111001111111000111111111100011111110011111111111100110011000001111000011100001111000000110011111110000111001100111000011110001111001100110000001100111001001100111000011100111111111000110011001110000111110011111000011111001111001110010011001111001111000000111100111110011111110011100110011001100111111111100001111000000001111111111111111001111111100110011111100110011001100110011111100111001111111000011111111111001110000000011100111111111111110011111100111001111110001111111111000111111111111111100000000100111110000111111111111111111111111111111110000",
"00000000000000000000000000000000000000000000000000000000011111000000000000000000001111000000000000000000000000000000000000000000011000000000011000000000000000000000000000000000000000000000000000000000011110000000000000000000000000000000000000011000000000000000000000000000000000000000000000000000000000000000000000000000000000000000000000000000000000000011000000000000000000000000000000000000000000000000000000000000000000000000000000000000000000000000000000000000000000000011000000000000000000000000000000000000000000000000000000000000000000000000000000000000000000000000000000000000000000000000000000000000000000000000000000000000000000000000000000000000000000000000000000000000000000000000000000000000000000000000000000000000000110000011000000011000110011000110011000000000111100001111111100000000111111111100000000110011000000110011001101100110000000110001100000001111000000000001100011111111000110000000000000011000000110001100000011100000000001110000000000000000111111110000000011110000000000000000000000000000000011111111111111111111111111111111111111111111111111111111111110000011111111111111111111000011111111111111111111111111111111111111111110011111111110011111111111111111111111111111111111111111111111111111111110000111111111111111111111111111111111111110011111111111111111111111111111111111111111111111111111111111111111111111111111111111111111111111111111111111110011111111111111111111111111111111111111111111111111111111111111111111111111111111111111111111111111111111111111111111110011111111111111111111111111111111111111111111111111111111111111111111111111111111111111111111111111111111111111111111111111111111111111111111111111111111111111111111111111111111111111111111111111111111111111111111111111111111111111111111111111111111111111100111110011111110011100110011100110011111111100001111000000001111111100000000001111111100110011111100110011001001100111111100111001111111000011111111111001110000000011100111111111111110011111100111001111110001111111111000111111111111111100000000111111110000111111111111111111111111111111110000"
};
